<svg width="24" height="24" viewBox="0 0 24 24" fill="none" xmlns="http://www.w3.org/2000/svg">
<path d="M2 21H22" stroke="#183C2E" stroke-width="2" stroke-linecap="round" stroke-linejoin="round"/>
<path d="M7 13H5C4.44772 13 4 13.4477 4 14V20C4 20.5523 4.44772 21 5 21H7C7.55228 21 8 20.5523 8 20V14C8 13.4477 7.55228 13 7 13Z" stroke="#183C2E" stroke-width="2" stroke-linejoin="round"/>
<path d="M6 17H6.5" stroke="#183C2E" stroke-width="2" stroke-linecap="square" stroke-linejoin="round"/>
<path d="M19 2H9C8.44772 2 8 2.44772 8 3V20C8 20.5523 8.44772 21 9 21H19C19.5523 21 20 20.5523 20 20V3C20 2.44772 19.5523 2 19 2Z" stroke="#183C2E" stroke-width="2" stroke-linejoin="round"/>
<path d="M11 5H13V7H11V5ZM15 5H17V7H15V5ZM11 8.5H13V10.5H11V8.5ZM15 8.5H17V10.5H15V8.5ZM15 12H17V14H15V12ZM15 15.5H17V17.5H15V15.5Z" fill="#183C2E"/>
</svg>
